<?xml version="1.0" ?><svg xmlns="http://www.w3.org/2000/svg" width="24" height="24" viewBox="0 0 24 24" fill="none"><path d="M7.18347 6.50653C7.50732 5.63995 8.73307 5.63995 9.05692 6.50653L11.953 14.256L9.6023 12.7868C9.20743 12.54 8.69447 12.5984 8.3652 12.9277L7.09089 14.202L5.34907 11.4151L7.18347 6.50653Z" fill="black"/><path d="M12.8487 20.5H20.3618C21.11 20.5 21.5932 19.7084 21.2513 19.0429L17.9725 12.6623L16.1618 14.1109C15.7639 14.4292 15.1903 14.3974 14.83 14.0371L13.6135 12.8206L12.4098 15.1632L12.1831 15.579L9.0723 13.6348L7.79799 14.9091C7.34326 15.3639 6.58372 15.2774 6.24289 14.732L4.9078 12.5959L2.45846 19.1499C2.21421 19.8035 2.69746 20.5 3.39519 20.5H12.8452L12.8487 20.5Z" fill="black"/><path d="M16.7232 10.2309L17.5062 11.7547L15.5371 13.33L14.0936 11.8864L14.9443 10.2309C15.3163 9.50697 16.3512 9.50697 16.7232 10.2309Z" fill="black"/></svg>